<?xml version="1.0" encoding="utf-8" ?><svg xmlns="http://www.w3.org/2000/svg" xmlns:xlink="http://www.w3.org/1999/xlink" width="1086" height="1086" viewBox="0 0 1086 1086"><clipPath id="cl_3"><rect width="1086" height="1086"/></clipPath><g clip-path="url(#cl_3)"><path fill="#A4FF00" transform="matrix(1.00086 0 0 1.00086 279.241 -72.0622)" d="M769.521 798.063Q769.521 814.612 762.141 833.845Q754.761 853.077 742.461 866.271Q730.161 879.689 712.718 879.689Q692.591 879.689 677.384 861.352Q662.177 843.014 652.113 819.532Q642.05 796.274 636.683 779.726Q627.514 750.43 622.817 710.176Q618.345 669.922 613.201 629.221Q608.281 588.296 598.218 558.105L597.323 487.661Q579.88 489.45 563.331 492.134Q546.782 494.817 534.93 496.606Q506.528 501.303 480.811 507.788Q455.316 514.05 429.599 521.43Q413.05 563.473 397.843 605.739Q382.859 647.782 352.669 692.732Q332.542 722.923 300.339 749.535Q268.359 776.147 227.658 792.473Q186.957 809.021 140.218 809.021Q89.6768 809.021 58.1445 785.316Q26.6123 761.388 11.8525 720.239Q-2.68359 679.091 -2.68359 626.761Q-2.68359 615.803 0.894531 600.372Q4.47266 584.718 10.0635 571.076Q15.6543 557.211 20.127 551.62Q29.2959 537.979 43.832 519.641Q58.5918 501.303 75.5879 486.319Q92.584 471.112 110.027 465.521Q120.985 461.943 136.863 454.563Q152.965 447.184 173.092 447.184Q196.126 447.184 216.253 460.154Q259.19 486.543 283.343 525.008Q307.719 563.473 307.719 612.225Q307.719 656.057 285.803 672.605Q263.887 689.154 222.515 693.627Q213.346 694.521 207.755 688.26Q202.388 681.774 202.388 675.289Q202.388 667.909 206.413 662.989Q210.662 657.846 219.831 656.951Q242.642 655.162 261.874 648.006Q281.106 640.626 281.106 614.908Q281.106 576.443 260.979 536.189Q240.853 495.712 206.189 473.796Q192.324 465.521 178.683 465.521Q161.239 465.521 146.032 472.901Q131.049 480.281 123.669 482.965Q103.542 488.556 86.0986 513.379Q68.6553 537.979 57.6973 567.722Q46.7393 597.465 46.7393 621.394Q46.7393 682.669 75.5879 721.134Q104.437 759.599 154.754 765.189Q161.239 766.084 167.054 766.531Q173.092 766.979 179.577 766.979Q230.789 766.979 270.596 743.721Q310.626 720.239 333.437 685.353Q360.943 645.099 374.138 606.634Q387.556 568.169 401.197 529.704Q386.661 533.282 371.901 537.531Q357.142 541.557 341.711 545.358Q331.647 547.147 325.609 541.333Q319.795 535.295 319.795 527.021Q319.795 512.261 334.331 508.683Q355.353 503.986 375.479 499.961Q395.606 495.712 415.957 492.134Q417.746 487.661 419.535 484.083Q421.324 480.281 423.113 476.479Q435.189 452.774 439.215 427.057Q443.24 401.339 448.831 376.739Q454.422 351.916 469.853 331.789Q474.549 325.527 481.705 312.333Q489.085 298.915 496.912 285.273Q504.739 271.408 508.317 264.923Q516.592 251.281 521.512 235.627Q526.655 219.973 536.719 209.015Q546.782 198.057 568.027 198.057Q587.26 198.057 598.665 218.184Q610.07 238.311 616.779 266.712Q623.712 295.113 627.737 322.62Q631.986 350.127 636.683 363.992L637.577 431.753L643.839 451.88L643.839 457.247Q658.599 455.458 664.189 454.563Q678.726 451.88 678.726 459.26Q678.726 463.732 672.24 470.218Q665.979 476.479 655.021 478.492Q651.219 479.387 643.839 481.176L644.957 519.641Q652.113 541.557 653.008 576.443Q654.126 611.106 654.126 647.782Q654.126 684.458 655.468 718.897Q656.81 753.113 663.071 774.358Q667.768 786.211 672.24 804.996Q676.937 823.781 685.211 838.317Q693.485 853.077 707.127 853.077Q723.676 853.077 733.292 842.119Q742.908 831.161 742.908 814.612Q742.908 801.642 749.17 793.814Q755.655 786.211 762.141 786.211Q769.521 786.211 769.521 798.063ZM596.205 460.154L589.049 438.015L586.142 363.992Q581.669 340.063 576.078 316.806Q570.711 293.324 563.778 278.341Q556.846 263.134 547.677 263.134Q540.521 263.134 531.352 274.986Q526.655 281.472 520.17 295.337Q513.908 308.979 507.87 322.396Q502.056 335.591 497.359 341.853Q482.823 361.085 476.338 385.014Q469.853 408.719 464.262 433.542Q458.895 458.142 447.042 481.176L444.358 486.543Q465.38 482.965 486.401 479.387Q507.423 475.585 529.339 472.007Q541.415 470.218 559.082 467.981Q576.973 465.521 596.205 462.838L596.205 460.154Z"/><path fill="#A4FF00" transform="matrix(0.929952 -0.370024 0.370024 0.929952 292.252 352.304)" d="M67.1738 220.706Q67.1738 228.187 65.98 231.769Q64.8657 235.35 63.0352 237.658Q61.2842 239.887 59.2944 242.832Q57.3843 245.776 56.1904 251.507Q55.0762 257.158 55.0762 267.902Q55.0762 272.2 58.3394 274.827Q61.6025 277.374 65.8208 277.374Q67.8105 277.374 67.8105 278.727Q67.8105 280.318 65.3433 282.786Q62.9556 285.253 60.9658 285.253Q53.8027 285.253 50.5396 279.522Q47.2764 273.792 47.2764 267.266Q47.2764 256.521 47.9131 250.154Q48.5498 243.787 49.1865 238.136Q49.9028 232.405 49.5845 223.889Q49.1865 218.079 47.9131 214.657Q46.6396 211.234 41.0684 211.234Q38.1235 211.234 37.0093 212.189Q35.895 213.145 34.2236 215.453Q30.6421 220.706 28.1748 230.018Q25.7871 239.25 24.2749 249.517Q22.8423 259.784 21.6484 267.823Q20.5342 275.782 19.5791 278.408Q18.5444 280.637 17.1118 281.592Q15.6792 282.626 14.0078 282.626Q12.7344 282.626 11.5405 282.069Q10.4263 281.592 9.78955 281.273Q8.11816 280.318 8.11816 278.01Q8.11816 275.782 9.23242 272.678Q10.4263 269.574 11.063 266.947Q11.6997 264.321 13.1323 257.635Q14.6445 250.95 16.2363 243.627Q17.9077 236.305 19.022 230.973Q20.2158 225.561 20.2158 225.561Q18.5444 225.561 16.9526 225.72Q15.3608 225.879 13.6895 225.879Q8.83447 225.879 8.83447 221.979Q8.83447 219.353 10.7446 214.179Q12.7344 208.926 17.9077 200.49Q19.5791 197.863 24.4341 193.963Q29.3687 190.063 32.6318 190.7Q33.9053 190.063 34.8604 190.063Q35.895 190.063 36.5317 190.063Q40.1133 190.063 40.5908 192.531Q41.0684 194.918 40.75 197.386Q40.4316 199.773 41.0684 199.455Q45.605 197.545 50.2212 197.545Q57.0659 197.545 62.0801 202.957Q67.1738 208.29 67.1738 220.706ZM165.972 240.205Q161.674 247.368 155.148 255.725Q148.621 264.002 141.618 269.892Q134.614 275.782 128.406 275.782Q118.377 275.782 112.647 274.667Q106.916 273.474 103.335 271.166Q97.1268 266.947 93.2269 260.103Q89.327 253.258 88.6903 246.095Q88.3719 244.105 88.3719 242.195Q88.3719 240.205 88.3719 238.613Q88.3719 219.353 95.8534 204.708Q103.335 190.063 117.024 187.119Q121.243 186.402 123.551 190.541Q125.859 194.6 125.859 201.445Q125.859 211.871 120.287 223.889Q117.979 228.824 115.512 233.281Q113.124 237.658 111.453 240.205Q107.235 246.413 105.086 248.562Q103.016 250.631 103.016 252.621Q103.016 257.794 109.543 262.729Q116.069 267.584 129.759 267.584Q134.932 267.584 140.503 263.047Q146.075 258.511 151.407 251.666Q156.819 244.821 161.037 237.977Q163.027 234.713 164.619 234.713Q166.609 234.713 166.609 237.658Q166.609 238.932 165.972 240.205ZM117.024 199.137Q115.751 197.227 111.612 200.012Q107.553 202.718 104.29 212.508Q102.061 219.671 102.061 229.142Q102.061 231.769 102.221 234.395Q102.38 236.942 102.698 239.568Q108.269 230.097 110.657 225.401Q113.124 220.706 114.398 215.453Q115.114 212.826 116.547 208.926Q117.979 205.026 117.979 202.082Q117.979 200.092 117.024 199.137Z"/><path fill="none" stroke="#A4FF00" stroke-width="20" stroke-linecap="round" stroke-linejoin="round" transform="matrix(1.00086 0 0 1.00086 -964.121 -290.91)" d="M1698.33 803.836L2052.2 693.547"/></g></svg>